# xmcd
#
# Track frame offsets: 
#        150
#        17826
#        33624
#        48653
#        71437
#        88415
#        109495
#        133099
#        145667
#        162674
#        183985
#        201719
#
# Disc length: 2861 seconds
#
# Revision: 0
# Processed by: cddbd v1.5.2PL0 Copyright (c) Steve Scherf et al.
# Submitted via: ExactAudioCopyFreeDBPlugin 1.0
#
DISCID=bf0b2b0c
DTITLE=Big Fat Mama - Goin' Back Home
DYEAR=1900
DGENRE=Blues
TTITLE0=Born with the boogie
TTITLE1=Take that train
TTITLE2=Touch your body
TTITLE3=All my life
TTITLE4=Shake now baby
TTITLE5=Goin' down south
TTITLE6=Nobody can say
TTITLE7=Josephine
TTITLE8=Play the blues for you
TTITLE9=Heart of stone
TTITLE10=Rollin' away
TTITLE11=Children, family and friends
EXTD=
EXTT0=
EXTT1=
EXTT2=
EXTT3=
EXTT4=
EXTT5=
EXTT6=
EXTT7=
EXTT8=
EXTT9=
EXTT10=
EXTT11=
PLAYORDER=
